
<svg xmlns="http://www.w3.org/2000/svg" width="754" height="751" version="1"><defs><clipPath id="a"><path d="M0 601h603V0H0v601z"/></clipPath><clipPath id="b"><path d="M8 301a294 294 0 0 1 589 0 294 294 0 1 1-589 0"/></clipPath><clipPath id="c"><path d="M201 370c0-24 23-44 49-44 23 0 41 16 45 37v2c0 2 5 9 6 10l6 1c2-1 5-8 7-11 1-23 22-41 47-41 26 0 47 20 47 44 0 28-29 43-47 43-11 0-22-4-30-10v1c-10-6-12-18-26-17-4 0-6 0-13 7-7 14-24 22-44 22-26 0-47-20-47-44m9 0c0 21 17 37 39 37s40-16 40-37-18-37-40-37-39 16-39 37m150-39c-23 1-40 16-40 37s18 38 41 38c22 0 41-17 41-38-1-20-18-37-40-37h-2"/></clipPath><clipPath id="d"><path d="M8 301a294 294 0 0 1 589 0 294 294 0 1 1-589 0"/></clipPath><clipPath id="e"><path d="M8 301a294 294 0 0 1 589 0 294 294 0 1 1-589 0"/></clipPath><clipPath id="f"><path d="M229 255l-24-14s-27-10-38-12c-10-3-47-24-47-24l-6-131C165 32 231 6 302 6c50 3 105 15 159 47l-7 13-4 52 3 32-22 56-28 26-157 26-17-3z"/></clipPath><clipPath id="g"><path d="M8 301a294 294 0 0 1 589 0 294 294 0 1 1-589 0"/></clipPath></defs><g clip-path="url(#a)" transform="matrix(1.25 0 0 -1.25 0 751)"><path fill="#fbfcfc" d="M597 301a294 294 0 1 0-589 0 294 294 0 0 0 589 0"/></g><g clip-path="url(#b)" transform="matrix(1.25 0 0 -1.25 0 751)"><path fill="#5350b9" d="M120 205l-7-163s180-97 348 11l-7 13-4 52 3 32-22 56-28 26-157 26-17-3-24-14s-27-10-38-12c-10-3-47-24-47-24"/><path fill="#7b7779" d="M237 274l-3-30c0-4 11-24 35-38 25-14 47-25 68-8l3 9 5 19 2 28s-96 22-110 20"/><path fill="#7b7779" d="M213 345l8-37 14-32 36-40 25-7 16-2 47 36 22 32 5 18 4 13 2 19 2 50-4 27-6 22-44 11-42 4h-33l-24-9-23-14-13-17 2-44 6-30z"/><path fill="#575557" d="M240 434s15 12 52 2c37-9 38-1 42-1 5 1 19-4 19-4l-19 1-18-2-22 3s-29 10-54 1m100-10h-17l-26 1c-10 1-14 3-23 6-8 2-30-3-30-3l-2-2-3-4s-2-5-5-7l-9-9 26 5 20-4 3 6s-16 4-18 6c-2 1-1 2-1 2l14-1 25-6c2 0 5 1 1 2l-12 2-14 6h-14l-5 2 13 2 9-2 18-4 14-1 21-2 17 1c4 1 1 4-2 4M240 271l31-28 21-11 30-4 24 21s-24-48-56-35-31 22-50 57"/><path fill="#2a2526" d="M211 402l4 18s14 13 15 16l3 5 10 1c3 0 12 6 12 6l5 4h15l7-1 17 1h10l9 3 8-3 7-4 10-1h23l8-8 8-10 1-10 3-12 4-11 2-11 1-9v-10l-1-11-1-14 8 18 6 12 4 15 5 4-3 8-2 6-1 6v15l1 8-1 11c10 9-2 20-7 29-3 5-10 4-16 7-3 1-4 3-6 6l-6 8a50 50 0 0 1-41 21l-11 9c-16 6-34-1-47-11-10-7-20 0-29 2-5-1-6-6-7-12-1-5-1-10-6-14-6-2-14 3-13 10-3-5-4-14-8-14-8 0-5 13-11 18 0-6 1-12-1-18l-1-8c0-3 1-6 3-8l4-10-2-7-6-3-2-11 2-12 3-10-1-5 3-13 4-8 1-10c1-2 3 9 3 9l1 13zm48-150l16-23 15-5 14-3 19 4 22 22-27-3h-28l-31 8z"/><path fill="#575557" d="M284 386s-5-1-8 2c-4 2-17 11-19 11-3 0-15 4-22 2-7-1-7 3 11 5s37-6 38-20"/><path fill="#858387" d="M327 354c6 0 6-10 24-12 17-3 23 2 26 1 2-1 16-4 1-10s-35-6-41 0c-6 7-18 21-10 21m-115 32s-3-16 7-11c10 4 14 8 19 9 4 0 18 6 26 3 0 0-33 21-52-1m69 17s4 2 10-3 14-8 29-1c15 8 21 12 23 10s-15-14-18-18l-19-10c-2 0-13 1-13 4l-12 18m84-15c-1 0 18-8 18-21s-3-16 0-18 7-2 9 6 1 26 1 26-11 20-19 21c-8 2-12 8-9-1 4-9 5-14 0-13"/><path fill="#575557" d="M327 387s32 38 57 0c0 0-3-4-5-2l-17 8s-15-1-22-5c-7-3-12-1-13-1"/><path fill="#858387" d="M292 264s-9 0-14-2c-4-3-10 6-10 6s2-13 12-14c10 0 12 4 17 5s-2 5-5 5"/><path fill="#2b2929" d="M259 292l5-1 5-3 13 2a384 384 0 0 1 33-1h14l6-1 5 1s4-1 4 2c0 2-1 2-2 2l-3-1-6-2-6 2-7 2-10-1-6-1-7 1-6 1-9-1-6-1h-5l-7 1s-8 1-5-1"/><path fill="#858387" d="M324 277l-8-1-7 3h-10c-3 0-2-3-11-3-8 0-18 8-18 8s15 4 22 1 14-3 17-3l15 1c6 1 13 0 0-6"/><path fill="#2b2929" d="M334 296s12 3 14-2 3-9 1-10l-6-2s-3 2-1 5-1 6-2 7l-6 2m-66 0s-13 5-17-3c-3-8 4-10 6-9 1 1 8 1 4 5-3 4 3 7 7 7"/><path fill="#858387" d="M225 325s4-16 26-18c0 0 23-4 33 6 0 0 3 1-5 6-8 4-9 6-7 10 3 4-1 4-1 4s-3-15-29-9c-25 6-17 1-17 1"/><path fill="#2b2929" d="M223 316s11-4 16-14c0 0 0-10-7 1-6 11-5 12-9 13m129-3s14-13 10-29a74 74 0 0 1 21 34c-1 0-8-15-31-5m-72-43s1-6 12-4c12 2 7-2 11-2 4-1 9 1 13 4 3 3 11 0 12 3 0 3-10-1-13 1s-3 5-7 5l-10-2c-2-2-6-2-8-2s-14 2-10-3"/><path fill="#1f1f1f" stroke="#fff" stroke-opacity=".5" stroke-width=".5" d="M360 331c-23 1-40 16-40 37s18 38 41 38c22 0 41-17 41-38-1-21-19-38-42-37m-111 2c-22 0-39 16-39 37s17 37 39 37 40-16 40-37-18-37-40-37m112 78c-11 0-22-4-30-10v1c-10-6-12-18-26-17-4 0-6 0-13 7-7 14-24 22-44 22-26 0-47-20-47-44s23-44 49-44a45 45 0 0 1 45 39c0 2 5 9 6 10l6 1c2-1 5-7 7-11 1-23 22-41 47-41 26 0 47 20 47 44 0 28-29 43-47 43"/></g><g clip-path="url(#c)" transform="matrix(1.25 0 0 -1.25 0 751)"><path fill="#2b2929" d="M267 415l4-8 10-6 6-1-10 10-10 5zm67-15l7 1s6 3 10 3l-7 3-1 4-10-6s-3-5 1-5"/></g><g clip-path="url(#d)" transform="matrix(1.25 0 0 -1.25 0 751)"><path fill="#2b2929" d="M284 325l3 1h4l4-3s-5-3-7-2l-4 4m29-3l8 4c3 0 5-2 5-2v-2l-5-1h-3l-4-1-1 2z"/><path fill="#858387" d="M304 372s6-1 8-12c2-10 13-24 15-26 2-3 7-5 5-9-1-3-10 2-14 5 0 0-7-5-12-6-4-1-12 1-17 5-4 3-5-1-8-3-4-1-10-3-6 4 4 8 3 5 9 9 7 4 14 35 20 33"/><path fill="#242322" d="M268 373a8 8 0 1 0-16 0 8 8 0 0 0 16 0m88-6c0-4-4-8-9-8-4 0-8 4-8 8s4 8 8 8c5 0 9-4 9-8"/><path fill="#57575a" d="M352 371c0-2-1-4-3-4s-4 2-4 4 2 4 4 4 3-2 3-4m-116-2s14-24 41-1c0 0-18-12-30-2 0 0-2 3-11 3m29 7a4 4 0 1 0-9 0 4 4 0 0 0 9 0"/><path fill="#3f3f40" d="M279 369c4-3-3 10-19 13s-24-13-24-13l10 2s7 20 33-2m75-9l18 2-2 2-3 4-5 5s-5 6-16 4c5 0 10-1 12-4l2-2-5 2s8-5 6-9c-1-3-7-4-7-4m-19 12c4 3 8 5 11 5h-1c-3 0-7-3-10-5m-3-2l-1-1 1 1m0 0"/><path fill="#57575a" d="M331 367s11-12 23-7c0 0-14-9-23 7"/></g><g fill="#383633" clip-path="url(#e)" transform="matrix(1.25 0 0 -1.25 0 751)"><path d="M296 506s-16-25 7-51c0 0-29 24-7 51"/><path d="M286 507s-14-25 11-50c0 0-30 22-11 50"/><path d="M290 501s-13-20 7-42c0 0-25 19-7 42m-24-13s-4-20 18-31c0 0-25 8-18 31"/><path d="M270 485s-4-16 13-27c0 0-20 8-13 27m83 3s5-20-17-31c0 0 25 8 17 31"/><path d="M349 485s5-16-13-27c0 0 21 8 13 27"/></g><g clip-path="url(#f)" transform="matrix(1.25 0 0 -1.25 0 751)"><path fill="#de352e" d="M163-27c2 18 15 121 5 140s-3-106-5-138c0 37 0 105-8 119-5 9-3-21 0-56l-3 7c-6 9 6-50 9-71 1-10 2-18 1-22l1 21m191 230s-29-67-104-6c0 0 82-73 104 6"/></g><g clip-path="url(#g)" transform="matrix(1.25 0 0 -1.25 0 751)"><path fill="#5350b9" d="M102 189l-30-59-6-19V59l57-38v96l14 86h-12l-23-14z"/></g><path fill="#e67e22" d="M307 661l-.3-5.1-.1-4.9-3.1-5.8a47 47 0 0 1-3-6.2c0-.4.4-.5 2-.6 2.5-.2 2.4-.3 4.2 3 1.5 2.8 2.2 3.9 2.5 3.7.1 0 1-1.6 1.8-3.4 1.8-3.7 1.7-3.6 4.5-3.5 1.8.1 1.9.1 1.8.7a57 57 0 0 1-2.8 6.3l-2.7 5.6-.2 5.2-.1 5.3h-2.1c-1.5 0-2.2 0-2.3-.2zm16 0c-3.1-1.2-5.4-4-6.3-7.4-.5-2-.4-7.1.1-9 1-3.1 2.6-5.1 5.3-6.4 1.2-.6 1.6-.6 4.4-.6 2.9 0 3.2 0 4.4.7 1.7.8 3.7 2.8 4.5 4.5a18.6 18.6 0 0 1 0 13.6c-.7 1.5-2.9 3.6-4.4 4.3-1.7.8-6.3.9-8 .2zm6-4.6c3.7-2.2 3.7-11.5 0-13.8-1.3-.9-2.4-1.1-3.7-.8-2.4.7-3.7 3-3.9 6.6-.1 3.5.6 6 2.1 7.4 1.6 1.5 3.7 1.7 5.6.6zm14.7 4c-1.4-.3-2.6-1-3.6-2.2-1.8-2-1.9-2.5-2.3-11.8-.2-4.5-.3-8.4-.2-8.6 0-.3.6-.3 2.2-.3 2 0 2.1 0 2.3.5.1.3.4 3.6.5 7.3.3 7.6.5 8.8 1.8 10a4.5 4.5 0 0 0 6-.4c1.3-1.3 1.3-2 1-10.2-.2-4.3-.2-7.4 0-7.5a11 11 0 0 1 4.1-.3 139.7 139.7 0 0 1 1 16.4c-.2 2.2-1 4-2.3 5.1-1.8 1.7-3 2-6.6 2.1h-3.9zM365 659c-.2-.5 5.2-22.3 5.6-22.9.4-.4 4.7-.7 5-.3.2.2 2 4.7 4.2 10a476 476 0 0 0 4.6 11.7c0 .5-.3.6-2.1.8-1.5 0-2.2 0-2.4-.2l-1-2.3a10 10 0 0 0-1.2-2.3c-.4-.3-5.9 0-6.6.4-.3.3-.6 1-1 2.4-.5 2.6-.7 2.8-3 3-1.7.2-2 .1-2-.3zm10.7-9.5l.2-.6c0-.4-1.6-4.6-2-5-.3-.4-.7.2-1.3 2.6-.7 2.5-.7 3-.3 3.3.4.1 3 0 3.4-.3zm9.8 8.3a1458.3 1458.3 0 0 0-2-22.5c.4-.8 11.2-1.3 13.2-.8 2.3.7 4.2 3.2 4.5 6 .2 2.3-.2 3.4-1.9 5l-1.4 1.6 2 4.1a27 27 0 0 1 2.1 4.6c0 .6 0 .7-1 .8h-3.5l-2-4-2.5-4.2c-.8-.5-3.2 0-3.5.7l.2 4.1c.3 3.2.3 4 0 4.2-.3.3-3.8.6-4.2.4zm8.6-14.1c2-1 2.6-2.8 1.3-4.2-.8-.8-2.2-1.2-4.2-1-2.6.3-2.6.2-2.6 1.8 0 2 .4 3.8.8 4 .5.4 3.4 0 4.7-.6zm10.4 12.3a91 91 0 0 1-1.5-11.2c-1.1-9.9-1.2-11.1-.9-11.4.2-.1 3.6-.6 7.5-1 5.7-.6 7.3-.7 7.5-.5.1.2.4 1 .4 2 .2 1.4.2 1.6-.2 1.8l-4.5.6a49 49 0 0 0-4.9.7l-.8.3.1 1.6c.2 1.9.4 2.4.8 2.6.2 0 1.6 0 3-.2 2.1-.2 2.6-.2 2.9 0 .4.6.6 2.9.3 3.2l-2.8.5-3 .4c-.3.2-.3.5-.2 2.4.2 2.9.4 3.3 1 3.5.4 0 2.6-.1 5-.4l4.8-.4c.2.1.4.5.5 1 .3 2 .3 2.5.1 2.8-.1.2-2.3.6-7.2 1.1-8.2 1-7.5.9-7.9.6zm28.7-3.7l-1.4-9c-.6-4.7-1.3-8.7-1.4-8.8-.2-.2-1-.2-3 0-2 .3-2.7.3-3 0-.4-.3-.8-3.3-.5-3.6a184 184 0 0 1 17.8-2.5c.2-.2 1.2-.4 2.2-.6 1.6-.3 2-.3 2.2 0 .2.1.6 1.6.8 3.3.8 4.6.9 4.9 1.8 4.9 1 0 6-.9 6.6-1.1.6-.2.6-.7-.2-4.8a22 22 0 0 1-.4-3.7c.1-.5.4-.5 2.5-1 1.2-.1 1.6-.1 1.9.1l2.1 11.2a48.7 48.7 0 0 1 1.6 11.2l-2.1.6c-1.5.2-1.9.2-2.2 0l-1-4.2-.8-4.3c-.3-.7-.9-.8-4.6-.1l-2.9.5-.3.4c-.2.4 0 1.7.5 4.7.6 3.5.7 4.3.4 4.5-.1.2-1 .5-2 .7-1.6.2-1.9.2-2.2 0-.2-.3-.9-3.7-1.7-8.6a303 303 0 0 0-1.6-9.1c-.2-.9-.5-1.2-.8-.7l-2.3.5c-3 .4-3.7.7-3.7 1.3l1.2 9c.6 4.6 1.1 8.5 1 8.6-.1.5-.6.6-2.6.8-1.4.1-1.8 0-2-.2zm32.5-5.6l-4.3-21.3c0-.2.2-.5.4-.6.8-.4 13.9-3 14.3-2.9.2.1.5.4.6.7.4 1 .6 2.7.3 3 0 .2-2.2.8-4.8 1.3l-5 1.3c-.2.4-.2.6 0 1.8.6 2.6.6 2.6 4.3 1.9a11 11 0 0 1 2.4-.4c.4.2.6.5.8 2 .2 1.5.1 1.5-2.8 2.1-2.9.6-3 .6-3.1 1.1-.2.5.7 4.9 1.1 5.2.2.2 1.8 0 5.1-.7 5.6-1 5.4-1.1 5.9 1.2.2 1.2.2 1.6 0 1.8-.4.3-13 3-14.2 3-.5 0-.8-.1-1-.5zm45.7 10.7c-1.2 0-3.2.6-3.4 1.1-.1.4 4.6 20.3 5 20.9l.8.2c1 0 11.5-2.6 12-3 .5-.3.5-.5.2-1.8-.5-2.2-.6-2.2-4.6-1.3-4 1-4.5 1-4.8.4-.2-.2-1.1-4-2.2-8.2-1-4.3-2-7.9-2.2-8 0-.2-.4-.3-.8-.3zm-8.2 2.1c-1.4 0-5.6.8-6 1.3-.2.2-.4 2.1-.6 5.6-.3 5.8-.4 6.5-.9 6.3-.2 0-1.5-2.3-2.9-5.1-2-3.7-2.7-5-3.2-5.2-.5-.1-6 1-6.3 1.3l-.2.9c0 1.3 4.3 20 4.6 20.5.2.2.6.3 1.2.2 1.6-.3 2.6-.7 2.8-1 0-.3-.5-3.3-1.3-7-.8-3.5-1.4-6.8-1.4-7.3 0-.6 0-.7.3-.3l3.6 6.5c1.7 3.4 3.4 6.4 3.6 6.6.5.6 1.6.6 2.3.1.4-.3.5-1 .8-7.3.4-7.7.5-8.7 1-8.5.2 0 .9 2.9 1.7 6.4l1.6 7.3.3 1 1.5-.2c1.7-.2 2.7-.7 2.7-1.4a377.4 377.4 0 0 0-4.8-20.6l-.4-.1zm-23.6 4.9l-7.7 1.3-7.2 1.3c-.5 0-1 1-.8 1.6l.3 1.5c0 .5.3.9.5 1 .2 0 1.5 0 2.9-.3 1.6-.3 2.6-.4 2.7-.2.2.1 1 4 1.8 8.6a66 66 0 0 0 2 8.6c.3.2 1.4.1 3.1-.3.8-.2 1-.4 1-.9l-1.5-8.7c-1.8-9.4-2-8.5 1.7-9.2 1.2-.2 2.3-.5 2.5-.7.2-.3 0-2-.4-3-.1-.4-.4-.6-1-.6zm-20 3.6l-1 .1c-2.4.4-2.4.4-1.7 4.7.5 2.9.5 3.7.3 4-.3.4-1.2.6-5.2 1.2-2 .3-2.2.1-3-4.2a15 15 0 0 0-.8-3.7h-1.5c-2.1.3-2.5.5-2.6 1.1 0 .8 3 19.9 3.4 20.7.2.6.3.6 1.6.5 2.1-.3 2.5-.4 2.7-1 0-.2 0-1.9-.4-3.7l-.6-3.8c-.2-1 .4-1.4 3.1-2 3.5-.6 4.3-.6 4.5 0l.8 4.3.8 4c.4.4 3.7 0 4.1-.5.3-.2.4-.7.3-1a829.1 829.1 0 0 1-3.4-20.1c-.2-.5-.4-.7-1.3-.6zm-28.8 4.6c-1.1 0-2.7.3-3 .6-.3.2-1 1.8-1.6 3.6-.8 2.4-1.2 3-1.5 3-.4 0-1-.7-3.3-4l-1.3-1.7-1.9.1c-2 .2-2.6.5-2.4 1.2 0 .2 1.6 2.6 3.5 5.3 2 2.7 3.6 5.3 3.7 5.6.2.4.5 2.5.9 4.8.3 2.3.6 4.3.8 4.5.2.2.6.3 1 .2l2-.3c.7-.1 1.2-.3 1.2-.6.1-.3 0-2.2-.3-4.2l-.6-4.7c0-.4 1-3.3 2-6.4 2-5.6 2-6 2-6.8 0-.2-.5-.2-1.2-.2zm-19 2.6a24.9 24.9 0 0 0-5.8.9c-.2.2-.7 2.6-1 5.3-1 5.6-1 6.4-1.4 6.4-.3 0-1-1.5-2.9-6.2-.9-2.3-1.8-4.4-2-4.6-.4-.5-6.3.2-6.7.8A214.5 214.5 0 0 0 394 699c.2.6.3.6 2 .4 1 0 1.9-.2 2-.3.3-.2.2-1.5-.5-7.6-.4-3.1-.6-6.2-.6-6.7 0-1 0-1 .3-.7.2.2 1.7 3.4 3.2 7.2a68 68 0 0 0 3 7c.6.4 1.5.3 2-.2.5-.4.8-1.4 1.6-6.8 1-7.3 1.4-9 1.7-9 .3 0 .6 2.3 1.4 9.1.5 4 .8 5.8 1 6 .5.3 3.6 0 4-.5v-1.3l-1.2-10.3a66 66 0 0 0-1.4-9.9c-.2-.1-.4-.2-.9-.2zm-41.3 4c-2.4 0-3 .1-4.2.7a9.8 9.8 0 0 0-4.4 4.3c-.8 1.7-1.2 4.4-1 7 .4 5.5 2.4 9 6.3 10.5 1.7.7 6.4.6 8.1-.3 2-.9 3.3-2.2 4.2-4.1.8-1.7.9-2 1-5 .2-6.4-1.6-10.2-5.8-12.3-1.3-.7-1.7-.8-4.2-.8zm-13.5 1.6a172.2 172.2 0 0 0-14.5 1.3c-.3.2-.3.7-.2 1.8 0 .8.2 1.6.3 1.8h3c2.6-.1 2.8 0 3 .4l.7 8.6c.3 4.5.7 8.3.8 8.5.4.4 3.4.4 4 0 .4-.4.4-.7-.2-8.7a133 133 0 0 1-.5-8.8c.2-.4 1.8-.8 3.4-.8 2.2 0 2.4-.3 2.4-2.1 0-1 0-1.6-.3-1.9h-2zm-33.8 1.8c-1.4 0-2.8.2-3.7.7-2.7 1.2-3.8 2.9-3.8 5.8 0 2.3.4 3.3 2 4.6 1 1 2.7 1.7 6.2 2.6 2.8.7 4 2 3.2 3.6-.9 1.9-3.4 2.4-5.5 1.2a5 5 0 0 1-1.5-1.3 1 1 0 0 0-.9-.5c-.8 0-3.4 1.4-3.5 2-.1.6 2.2 2.9 3.7 3.6 1.2.6 1.7.7 4.1.7 2.2 0 3-.1 4-.5a6.4 6.4 0 0 0 3.4-3c.7-1.2.8-1.6.8-3.4 0-1.9-.1-2.3-.8-3.5-1.2-2-3-3-7-3.9-1.1-.2-2.4-.6-2.8-.9-1.4-.8-1.5-2.4-.2-3.6.4-.3 1-.5 2-.5 1.1 0 1.6.2 2.8 1l1.5 1 1.4-.6c.8-.4 1.5-1 1.6-1.1.2-.7-1.8-2.6-3.3-3.3-1-.4-2.4-.7-3.7-.7zm47.1.8c.6 0 1.1 0 1.7.3 2.4.9 3.6 3.5 3.6 7.7 0 2.4 0 3-.6 4-.3.8-1 1.5-1.5 1.8-1.8 1.1-3.1 1.1-5 0-1.7-1-2.8-4-2.8-7.5 0-1.8.1-2.3.7-3.6.9-1.8 2.3-2.7 4-2.7zm-65.8.2a11 11 0 0 0-4.5.7 6.4 6.4 0 0 0-3.5 5.8c0 3.6 2.1 5.5 7.4 6.9 2.6.6 3.5 1.1 4 2.2.5 1 .2 1.9-.8 2.7-1.6 1.3-3.7 1-5.7-.7-.6-.6-1.3-1.1-1.5-1.1-.7 0-3.2 1.3-3.3 1.7-.4 1 2.2 3.6 4.6 4.4 1.8.7 5.5.5 7.3-.3 1.5-.7 3-2.1 3.6-3.6.6-1.4.5-4.3-.1-5.7-1-2.2-3-3.4-6.5-4.2-2.4-.6-3.2-.9-4-1.6-1.7-1.6.7-4.3 3.3-3.6a7 7 0 0 1 2 1c.8.8 1.2.9 1.8.8 1.2-.3 2.6-1.2 2.6-1.8 0-.7-2.5-2.8-4-3.3-.7-.2-1.7-.3-2.7-.3zm-19 .6c-1.4 0-2.9.2-3.8.6a9.8 9.8 0 0 0-5.2 6c-.6 2.1-.7 7.4 0 9.6a9 9 0 0 0 5.8 6.4c1.7.6 5.8.4 7.2-.3 2.2-1.2 4.5-4.3 4.3-5.9 0-.5-.3-.7-1.5-1-2.1-.7-2.3-.7-3.2.7-1.5 2.4-3.4 3.1-5.3 2.2-1-.5-1.3-.9-2-2.3-.9-1.7-1-2-1-4.7s.1-3 1-4.6c.6-1.5 1-1.9 2-2.3.5-.3 1.3-.6 1.6-.6 1 0 2.3.7 2.9 1.5l1 1.3.5.7 1.7-.6c1-.3 1.9-.7 2-1 .4-1.1-2-4-4.3-5.1-.9-.4-2.3-.6-3.7-.6z"/></svg>
